<svg width="375" height="282" viewBox="0 0 375 282" fill="none" xmlns="http://www.w3.org/2000/svg">
<mask id="mask0_56_3918" style="mask-type:alpha" maskUnits="userSpaceOnUse" x="0" y="0" width="375" height="282">
<rect width="375" height="282" fill="#C4C4C4"/>
</mask>
<g mask="url(#mask0_56_3918)">
<path d="M35.5 98C35.5 90.5442 41.5442 84.5 49 84.5H330C337.456 84.5 343.5 90.5442 343.5 98V109.5H35.5V98Z" fill="#E7F2FA" stroke="#195471"/>
<line x1="35.4432" y1="109.5" x2="344.125" y2="109.5" stroke="#195471"/>
<path d="M9 145.5C-1 144.3 -6.66667 165.167 -10 175.5L-15 216.5C-2.16667 219.167 2 213.6 16 202C33.5 187.5 39 141.5 30.5 139C22 136.5 21.5 147 9 145.5Z" fill="#469FD1"/>
<path d="M26 145C21.9355 158.793 9.04516 188.103 -10 195" stroke="white" stroke-linecap="round"/>
<path d="M5.5 185C12 182.667 25.9 175 29.5 163" stroke="white" stroke-linecap="round"/>
<path d="M5 152C6.65136 157.333 16.9449 167.3 12.1009 174.5" stroke="white" stroke-linecap="round"/>
<path d="M47.929 208.182V214H47.2244V208.92H47.1903L45.7699 209.864V209.148L47.2244 208.182H47.929ZM51.5 214.08C51.072 214.08 50.7074 213.963 50.4062 213.73C50.1051 213.495 49.875 213.155 49.7159 212.71C49.5568 212.263 49.4773 211.723 49.4773 211.091C49.4773 210.462 49.5568 209.925 49.7159 209.48C49.8769 209.033 50.108 208.692 50.4091 208.457C50.7121 208.221 51.0758 208.102 51.5 208.102C51.9242 208.102 52.2869 208.221 52.5881 208.457C52.8911 208.692 53.1222 209.033 53.2812 209.48C53.4422 209.925 53.5227 210.462 53.5227 211.091C53.5227 211.723 53.4432 212.263 53.2841 212.71C53.125 213.155 52.8949 213.495 52.5938 213.73C52.2926 213.963 51.928 214.08 51.5 214.08ZM51.5 213.455C51.9242 213.455 52.2538 213.25 52.4886 212.841C52.7235 212.432 52.8409 211.848 52.8409 211.091C52.8409 210.587 52.7869 210.158 52.679 209.804C52.5729 209.45 52.4195 209.18 52.2188 208.994C52.0199 208.809 51.7803 208.716 51.5 208.716C51.0795 208.716 50.7509 208.923 50.5142 209.338C50.2775 209.751 50.1591 210.335 50.1591 211.091C50.1591 211.595 50.2121 212.023 50.3182 212.375C50.4242 212.727 50.5767 212.995 50.7756 213.179C50.9763 213.363 51.2178 213.455 51.5 213.455ZM56.5 214.08C56.072 214.08 55.7074 213.963 55.4062 213.73C55.1051 213.495 54.875 213.155 54.7159 212.71C54.5568 212.263 54.4773 211.723 54.4773 211.091C54.4773 210.462 54.5568 209.925 54.7159 209.48C54.8769 209.033 55.108 208.692 55.4091 208.457C55.7121 208.221 56.0758 208.102 56.5 208.102C56.9242 208.102 57.2869 208.221 57.5881 208.457C57.8911 208.692 58.1222 209.033 58.2812 209.48C58.4422 209.925 58.5227 210.462 58.5227 211.091C58.5227 211.723 58.4432 212.263 58.2841 212.71C58.125 213.155 57.8949 213.495 57.5938 213.73C57.2926 213.963 56.928 214.08 56.5 214.08ZM56.5 213.455C56.9242 213.455 57.2538 213.25 57.4886 212.841C57.7235 212.432 57.8409 211.848 57.8409 211.091C57.8409 210.587 57.7869 210.158 57.679 209.804C57.5729 209.45 57.4195 209.18 57.2188 208.994C57.0199 208.809 56.7803 208.716 56.5 208.716C56.0795 208.716 55.7509 208.923 55.5142 209.338C55.2775 209.751 55.1591 210.335 55.1591 211.091C55.1591 211.595 55.2121 212.023 55.3182 212.375C55.4242 212.727 55.5767 212.995 55.7756 213.179C55.9763 213.363 56.2178 213.455 56.5 213.455Z" fill="#AECBD9"/>
<path d="M51.5362 233.08C51.1461 233.08 50.8014 233.01 50.5021 232.872C50.2048 232.732 49.9728 232.54 49.8061 232.295C49.6394 232.049 49.5571 231.769 49.5589 231.455C49.5571 231.208 49.6054 230.981 49.7038 230.773C49.8023 230.562 49.9368 230.387 50.1072 230.247C50.2796 230.105 50.4718 230.015 50.6839 229.977V229.943C50.4055 229.871 50.1839 229.715 50.0192 229.474C49.8544 229.232 49.773 228.956 49.7749 228.648C49.773 228.352 49.8478 228.088 49.9993 227.855C50.1508 227.622 50.3591 227.438 50.6243 227.304C50.8913 227.17 51.1953 227.102 51.5362 227.102C51.8733 227.102 52.1745 227.17 52.4396 227.304C52.7048 227.438 52.9131 227.622 53.0646 227.855C53.218 228.088 53.2957 228.352 53.2976 228.648C53.2957 228.956 53.2114 229.232 53.0447 229.474C52.88 229.715 52.6612 229.871 52.3885 229.943V229.977C52.5987 230.015 52.7881 230.105 52.9567 230.247C53.1252 230.387 53.2597 230.562 53.3601 230.773C53.4605 230.981 53.5116 231.208 53.5135 231.455C53.5116 231.769 53.4264 232.049 53.2578 232.295C53.0911 232.54 52.8591 232.732 52.5618 232.872C52.2663 233.01 51.9245 233.08 51.5362 233.08ZM51.5362 232.455C51.7995 232.455 52.0268 232.412 52.218 232.327C52.4093 232.241 52.5571 232.121 52.6612 231.966C52.7654 231.811 52.8184 231.629 52.8203 231.42C52.8184 231.201 52.7616 231.007 52.6499 230.838C52.5381 230.67 52.3857 230.537 52.1925 230.44C52.0012 230.344 51.7824 230.295 51.5362 230.295C51.2881 230.295 51.0665 230.344 50.8714 230.44C50.6783 230.537 50.5258 230.67 50.4141 230.838C50.3042 231.007 50.2502 231.201 50.2521 231.42C50.2502 231.629 50.3004 231.811 50.4027 231.966C50.5069 232.121 50.6555 232.241 50.8487 232.327C51.0419 232.412 51.2711 232.455 51.5362 232.455ZM51.5362 229.693C51.7446 229.693 51.9292 229.652 52.0902 229.568C52.2531 229.485 52.3809 229.368 52.4737 229.219C52.5665 229.069 52.6139 228.894 52.6158 228.693C52.6139 228.496 52.5675 228.325 52.4766 228.179C52.3857 228.031 52.2597 227.918 52.0987 227.838C51.9377 227.757 51.7502 227.716 51.5362 227.716C51.3184 227.716 51.1281 227.757 50.9652 227.838C50.8023 227.918 50.6764 228.031 50.5874 228.179C50.4983 228.325 50.4548 228.496 50.4567 228.693C50.4548 228.894 50.4993 229.069 50.5902 229.219C50.683 229.368 50.8108 229.485 50.9737 229.568C51.1366 229.652 51.3241 229.693 51.5362 229.693ZM56.5 233.08C56.072 233.08 55.7074 232.963 55.4062 232.73C55.1051 232.495 54.875 232.155 54.7159 231.71C54.5568 231.263 54.4773 230.723 54.4773 230.091C54.4773 229.462 54.5568 228.925 54.7159 228.48C54.8769 228.033 55.108 227.692 55.4091 227.457C55.7121 227.221 56.0758 227.102 56.5 227.102C56.9242 227.102 57.2869 227.221 57.5881 227.457C57.8911 227.692 58.1222 228.033 58.2812 228.48C58.4422 228.925 58.5227 229.462 58.5227 230.091C58.5227 230.723 58.4432 231.263 58.2841 231.71C58.125 232.155 57.8949 232.495 57.5938 232.73C57.2926 232.963 56.928 233.08 56.5 233.08ZM56.5 232.455C56.9242 232.455 57.2538 232.25 57.4886 231.841C57.7235 231.432 57.8409 230.848 57.8409 230.091C57.8409 229.587 57.7869 229.158 57.679 228.804C57.5729 228.45 57.4195 228.18 57.2188 227.994C57.0199 227.809 56.7803 227.716 56.5 227.716C56.0795 227.716 55.7509 227.923 55.5142 228.338C55.2775 228.751 55.1591 229.335 55.1591 230.091C55.1591 230.595 55.2121 231.023 55.3182 231.375C55.4242 231.727 55.5767 231.995 55.7756 232.179C55.9763 232.363 56.2178 232.455 56.5 232.455Z" fill="#AECBD9"/>
<line x1="60" y1="210.75" x2="340" y2="210.75" stroke="#AECBD9" stroke-width="0.5"/>
<line x1="60" y1="229.75" x2="340" y2="229.75" stroke="#AECBD9" stroke-width="0.5"/>
<line x1="60" y1="248.75" x2="340" y2="248.75" stroke="#D2D2D2" stroke-width="0.5"/>
<path d="M140 250V243" stroke="#469FD1" stroke-linecap="round" stroke-linejoin="round"/>
<path d="M153 250L153 238" stroke="#469FD1" stroke-linecap="round" stroke-linejoin="round"/>
<path d="M166 250V243" stroke="#469FD1" stroke-linecap="round" stroke-linejoin="round"/>
<path d="M178 250V243" stroke="#469FD1" stroke-linecap="round" stroke-linejoin="round"/>
<path d="M190.741 230.936V225.466" stroke="#195471" stroke-linecap="round" stroke-linejoin="round"/>
<path d="M203.331 230.936V225.466" stroke="#195471" stroke-linecap="round" stroke-linejoin="round"/>
<path d="M215.934 230.936V225.466" stroke="#195471" stroke-linecap="round" stroke-linejoin="round"/>
<path d="M228.524 230.936V225.466" stroke="#195471" stroke-linecap="round" stroke-linejoin="round"/>
<path d="M241.114 230.936V225.466" stroke="#195471" stroke-linecap="round" stroke-linejoin="round"/>
<path d="M253.704 230.936V225.466" stroke="#195471" stroke-linecap="round" stroke-linejoin="round"/>
<path d="M265.824 230.936V225.466" stroke="#195471" stroke-linecap="round" stroke-linejoin="round"/>
<path d="M277.944 230.936V225.466" stroke="#195471" stroke-linecap="round" stroke-linejoin="round"/>
<path d="M290.05 230.936V225.466" stroke="#195471" stroke-linecap="round" stroke-linejoin="round"/>
<rect x="35.5" y="84.5" width="308" height="210" rx="13.5" stroke="#195471"/>
<path d="M9.55284 227.047L20.5045 227.206C20.5045 227.206 37.3565 210.004 46.2557 190.759C58.7396 163.71 47.728 144.119 40.0463 142.514C32.3647 140.909 23.5313 151.557 25 173C25.8622 185.662 24.9383 204.483 9.55284 227.047Z" fill="#BBE1F6"/>
<path d="M38.0001 145C42.5001 148.333 48.5 161.7 36.5 188.5C24.5 215.3 18.8334 221.667 17.5 221.5" stroke="white" stroke-linecap="round"/>
<path d="M29.9999 156C33.1316 162.331 37.5039 174.968 37.9999 184" stroke="white" stroke-linecap="round"/>
<path d="M45.837 178C43.8413 183.511 39.0428 191.813 34.4719 193.971" stroke="white" stroke-linecap="round"/>
<path d="M215.609 170.278C211.656 171.692 207.335 171.69 203.382 170.275C199.43 168.86 196.09 166.118 193.933 162.516C191.776 158.915 190.934 154.676 191.551 150.524C192.168 146.371 194.206 142.561 197.317 139.742C200.429 136.924 204.421 135.271 208.614 135.066C212.808 134.861 216.942 136.117 220.314 138.619C223.685 141.12 226.085 144.714 227.104 148.786C228.123 152.859 227.698 157.159 225.902 160.954L209.5 153.191L215.609 170.278Z" fill="#E7F2FA"/>
<path d="M225.834 145.286C227.663 149.065 228.125 153.361 227.141 157.443C226.158 161.524 223.789 165.138 220.44 167.669C217.09 170.2 212.967 171.491 208.772 171.323C204.577 171.154 200.57 169.537 197.434 166.745C194.299 163.954 192.228 160.161 191.575 156.014C190.921 151.867 191.727 147.622 193.853 144.002C195.979 140.381 199.294 137.61 203.234 136.161C207.174 134.711 211.495 134.673 215.46 136.051L209.5 153.191L225.834 145.286Z" fill="#469FD1"/>
<path d="M242.786 155.965C242.264 154.016 242.302 151.958 242.898 150.03C243.493 148.101 244.621 146.38 246.151 145.064C247.681 143.748 249.552 142.891 251.548 142.591C253.544 142.291 255.584 142.561 257.433 143.369C259.283 144.177 260.866 145.492 262.002 147.16C263.137 148.829 263.779 150.784 263.852 152.801C263.926 154.818 263.428 156.815 262.417 158.561C261.406 160.308 259.922 161.734 258.136 162.675L253.14 153.191L242.786 155.965Z" fill="#E7F2FA"/>
<path d="M260.331 161.141C258.492 162.804 256.133 163.779 253.655 163.898C251.178 164.017 248.737 163.274 246.746 161.794C244.756 160.315 243.34 158.191 242.74 155.785C242.139 153.379 242.392 150.839 243.455 148.598C244.517 146.358 246.324 144.555 248.567 143.496C250.81 142.438 253.35 142.191 255.755 142.796C258.16 143.401 260.281 144.821 261.756 146.814C263.232 148.808 263.97 151.251 263.846 153.728L253.14 153.191L260.331 161.141Z" fill="#CEE0E8"/>
<path d="M260.331 161.141C258.834 162.495 256.985 163.398 254.997 163.748C253.01 164.098 250.964 163.879 249.094 163.117C247.225 162.356 245.609 161.082 244.432 159.442C243.255 157.802 242.565 155.864 242.441 153.849C242.317 151.835 242.765 149.826 243.732 148.055C244.699 146.283 246.147 144.821 247.908 143.835C249.67 142.85 251.674 142.383 253.689 142.486C255.705 142.589 257.651 143.26 259.302 144.42L253.14 153.191L260.331 161.141Z" fill="#469FD1"/>
<path d="M60.8564 219.25L49.9551 241.25L48.3034 247L45 260H229V215L225.036 212.75L204.224 229.5L194.645 212.75L181.431 208.25L172.842 192L156.655 202L148.066 225.25L137.165 234.5L121.309 212.75L110.077 219.25L97.1939 192L82.6589 210.5L60.8564 219.25Z" fill="url(#paint0_linear_56_3918)"/>
<path d="M45 260L50.276 241.25L61.1577 219.25L82.9211 210.5L97.4301 192L110.29 219.25L121.502 212.75L137.33 234.5L148.211 225.25L156.785 202L172.943 192L181.516 208.25L194.706 212.75L204.269 229.5L225.043 212.75L229 215" stroke="#469FD1" stroke-width="0.996416"/>
</g>
<g clip-path="url(#clip0_56_3918)">
<path d="M338.027 91.6779L387.125 116.465L378.111 134.319L374.636 136.765L361.089 141.408L347.686 138.002L336.757 130.804L330.599 118.594L329.113 112.663L329.013 109.532L338.027 91.6779Z" fill="white"/>
<path d="M351.037 127.134C340.228 121.677 333.482 111.772 332.854 102.056C329.71 112.585 336.288 125.228 348.809 131.549C361.329 137.87 375.408 135.657 382.013 126.874C373.822 132.137 361.846 132.592 351.037 127.134Z" fill="#469FD1"/>
<path d="M347.33 134.476C336.521 129.019 329.775 119.114 329.146 109.399C326.002 119.928 332.581 132.571 345.102 138.892C357.621 145.212 371.701 142.999 378.306 134.217C370.115 139.48 358.14 139.933 347.33 134.476ZM357.828 111.925C358.515 112.357 359.171 112.693 359.788 112.94C360.406 113.187 360.985 113.345 361.522 113.42C362.058 113.496 362.55 113.489 362.995 113.406C363.439 113.325 363.834 113.167 364.175 112.942C364.471 112.747 364.683 112.495 364.812 112.19C364.942 111.885 364.989 111.527 364.955 111.116C364.921 110.706 364.806 110.244 364.611 109.732C364.417 109.221 364.143 108.66 363.792 108.052L357.828 111.925Z" fill="#469FD1"/>
<path d="M352.674 124.225C366.406 131.158 382.044 127.851 387.603 116.841C393.162 105.83 386.537 91.2834 372.805 84.3509C359.074 77.4188 343.436 80.7256 337.877 91.7366C332.318 102.747 338.943 117.293 352.674 124.225ZM347.023 98.2315L353.079 102.478C352.845 102.914 352.672 103.357 352.565 103.81C352.459 104.263 352.421 104.724 352.457 105.195C352.494 105.667 352.606 106.149 352.802 106.643C352.997 107.138 353.276 107.645 353.647 108.165L360.744 103.65C359.639 102.029 358.805 100.611 358.215 99.3734C357.627 98.1389 357.281 97.0826 357.151 96.1802C357.021 95.2808 357.105 94.5346 357.376 93.9192C357.647 93.3051 358.105 92.8212 358.722 92.4442C359.643 91.8822 360.681 91.5595 361.804 91.4527C362.923 91.347 364.127 91.4553 365.384 91.7532C366.64 92.0517 367.949 92.5406 369.281 93.1985C370.611 93.856 371.966 94.6822 373.311 95.6551L375.44 94.301L379.616 97.7742L377.414 99.2043C378.357 100.167 379.11 101.103 379.687 102.012C380.264 102.923 380.665 103.808 380.899 104.668C381.134 105.53 381.203 106.366 381.117 107.18C381.031 107.995 380.789 108.787 380.403 109.556L374.529 105.421C374.591 105.116 374.636 104.811 374.653 104.501C374.67 104.192 374.66 103.879 374.613 103.56C374.566 103.24 374.481 102.915 374.351 102.579C374.22 102.245 374.042 101.902 373.808 101.547L367.411 105.7C368.598 107.341 369.512 108.777 370.169 110.04C370.829 111.307 371.232 112.398 371.394 113.345C371.558 114.295 371.481 115.1 371.182 115.789C370.883 116.481 370.36 117.058 369.633 117.55C368.806 118.111 367.831 118.482 366.732 118.651C365.632 118.819 364.407 118.785 363.082 118.533C361.756 118.28 360.332 117.81 358.835 117.11C357.338 116.409 355.77 115.48 354.158 114.308L351.768 115.86L347.396 112.143L349.837 110.589C348.741 109.447 347.871 108.324 347.22 107.226C346.57 106.13 346.14 105.058 345.919 104.019C345.699 102.982 345.687 101.976 345.875 101.008C346.062 100.044 346.448 99.1158 347.023 98.2315Z" fill="#469FD1"/>
<path d="M364.337 101.365L369.852 97.8557C369.248 97.4786 368.659 97.1799 368.095 96.9559C367.531 96.7319 366.992 96.5841 366.489 96.5064C365.986 96.4288 365.52 96.4225 365.103 96.4837C364.685 96.5447 364.316 96.6742 364.007 96.868C363.741 97.0342 363.54 97.2475 363.41 97.5119C363.28 97.7753 363.221 98.0909 363.239 98.4603C363.258 98.8297 363.355 99.254 363.535 99.7363C363.715 100.22 363.98 100.761 364.337 101.365Z" fill="#469FD1"/>
</g>
<g opacity="0.5" clip-path="url(#clip1_56_3918)">
<path d="M323.951 34.4888L343.414 22.6135L347.732 29.691L347.834 31.4498L346.509 37.2361L342.379 41.2126L337.455 43.4886L331.808 42.9885L329.394 42.2155L328.27 41.5662L323.951 34.4888Z" fill="white"/>
<path d="M339.284 37.6567C334.999 40.2711 330.035 40.4818 326.476 38.5795C329.497 41.9884 335.388 42.4348 340.352 39.4065C345.315 36.3784 347.613 30.9357 345.963 26.6894C346.027 30.7247 343.569 35.0423 339.284 37.6567Z" fill="#609BBB"/>
<path d="M341.06 40.5671C336.775 43.1815 331.811 43.3925 328.252 41.4902C331.273 44.8991 337.164 45.3456 342.128 42.3172C347.091 39.2891 349.389 33.846 347.739 29.6002C347.803 33.6355 345.344 37.9526 341.06 40.5671ZM335.411 31.94C335.714 31.7924 335.975 31.6351 336.197 31.4715C336.419 31.308 336.601 31.1385 336.745 30.9659C336.889 30.7934 336.994 30.6186 337.062 30.4441C337.131 30.2699 337.162 30.0961 337.157 29.9267C337.153 29.7798 337.11 29.6502 337.031 29.538C336.952 29.4257 336.836 29.3309 336.684 29.2531C336.532 29.1755 336.344 29.115 336.121 29.0715C335.899 29.0281 335.642 29.0021 335.35 28.9929L335.411 31.94Z" fill="#609BBB"/>
<path d="M338.617 36.4441C344.06 33.1228 346.314 26.8918 343.651 22.5273C340.988 18.1623 334.416 17.3161 328.973 20.6374C323.53 23.9585 321.276 30.1895 323.939 34.5544C326.602 38.919 333.174 39.7652 338.617 36.4441ZM328.226 32.7528L331.045 31.5478C331.148 31.7254 331.266 31.8834 331.402 32.0198C331.539 32.1562 331.693 32.2705 331.867 32.3608C332.041 32.4509 332.235 32.517 332.452 32.556C332.669 32.5953 332.909 32.6078 333.173 32.5911L333.134 29.1042C332.321 29.1391 331.64 29.1228 331.075 29.06C330.511 28.9974 330.064 28.8883 329.717 28.737C329.372 28.5861 329.128 28.3934 328.97 28.1633C328.813 27.9336 328.743 27.6667 328.745 27.3668C328.748 26.9196 328.862 26.4834 329.069 26.0648C329.277 25.6475 329.578 25.2469 329.958 24.8692C330.337 24.4922 330.796 24.1378 331.319 23.8128C331.841 23.4878 332.428 23.1914 333.065 22.9303L333.053 21.8843L335.19 21.1725L335.212 22.2607C335.757 22.1393 336.251 22.0784 336.697 22.074C337.145 22.0699 337.544 22.1222 337.898 22.2277C338.253 22.3333 338.563 22.4918 338.831 22.7C339.099 22.9085 339.325 23.1668 339.511 23.4708L336.771 24.636C336.677 24.5473 336.579 24.4649 336.474 24.3911C336.369 24.3176 336.256 24.2527 336.134 24.1996C336.011 24.1461 335.878 24.1049 335.731 24.0776C335.585 24.0507 335.425 24.0381 335.249 24.043L335.313 27.2041C336.151 27.1445 336.856 27.1367 337.445 27.1812C338.035 27.2257 338.508 27.3225 338.877 27.4722C339.247 27.6223 339.514 27.8251 339.691 28.0811C339.87 28.3377 339.958 28.6479 339.973 29.0117C339.99 29.4258 339.907 29.8499 339.727 30.274C339.545 30.6985 339.265 31.1224 338.887 31.5339C338.508 31.9457 338.031 32.3446 337.458 32.7187C336.883 33.0927 336.213 33.442 335.448 33.7538L335.473 34.9346L333.208 35.6621L333.194 34.4625C332.552 34.5993 331.966 34.6602 331.437 34.6492C330.909 34.6385 330.438 34.5557 330.023 34.4066C329.61 34.2575 329.253 34.0418 328.953 33.7639C328.654 33.4871 328.412 33.1485 328.226 32.7528Z" fill="#609BBB"/>
<path d="M333.114 27.3391L333.084 24.6296C332.819 24.7597 332.585 24.9019 332.383 25.0517C332.181 25.2014 332.011 25.359 331.874 25.5191C331.736 25.6792 331.632 25.842 331.563 26.0024C331.493 26.1629 331.458 26.3213 331.458 26.4724C331.459 26.6024 331.49 26.7197 331.555 26.8234C331.619 26.9267 331.717 27.0167 331.851 27.0909C331.986 27.165 332.156 27.2237 332.366 27.2655C332.575 27.3078 332.824 27.3328 333.114 27.3391Z" fill="#609BBB"/>
</g>
<path d="M96.5117 97.1555H96.2445C96.1016 96.2922 95.5523 95.5508 94.7797 95.0945C94.4891 95.4883 94.0234 95.7445 93.4977 95.7445C92.7953 95.7445 92.1984 95.2875 91.9867 94.6563L91.1852 94.0492C91.0859 93.9742 90.9953 94.0172 90.9813 94.1445L90.8578 95.3227C90.4383 95.6461 90.1109 96.0633 89.9109 96.5391H89.3812C89.1719 96.5375 89 96.7094 89 96.9195V98.0789C89 98.2891 89.1719 98.4609 89.3812 98.4609H89.832C90.0539 99.1344 90.5297 99.7086 91.1594 100.091V100.829C91.1594 100.923 91.2367 101 91.3305 101H92.1695C92.2633 101 92.3406 100.923 92.3406 100.829V100.535C92.55 100.573 92.7672 100.594 92.9891 100.594C93.2109 100.594 93.4281 100.573 93.6375 100.535V100.829C93.6375 100.923 93.7148 101 93.8086 101H94.6477C94.7414 101 94.8187 100.923 94.8187 100.829V100.091C95.6117 99.6094 96.1609 98.825 96.2664 97.9195H96.5117C96.7227 97.9195 96.893 97.7484 96.893 97.5375C96.893 97.3266 96.7227 97.1555 96.5117 97.1555ZM91.2211 96.8203C90.9883 96.8203 90.7945 96.6586 90.7414 96.443C90.8047 96.532 90.9078 96.5898 91.025 96.5898C91.218 96.5898 91.3742 96.4336 91.3742 96.2406C91.3742 96.0477 91.218 95.8914 91.025 95.8914C91.0086 95.8914 90.9922 95.8945 90.9758 95.8961C91.0484 95.8547 91.1312 95.8289 91.2211 95.8289C91.4945 95.8289 91.7164 96.0508 91.7164 96.325C91.7172 96.5977 91.4953 96.8203 91.2211 96.8203Z" fill="#469FD1"/>
<path d="M93.4984 93C92.864 93 92.3484 93.5156 92.3484 94.15C92.3484 94.7844 92.8648 95.3 93.4984 95.3C94.132 95.3 94.6476 94.7844 94.6476 94.15C94.6476 93.5156 94.132 93 93.4984 93ZM93.5914 94.725V94.9211H93.3554V94.7422C93.2101 94.7344 93.0671 94.6977 92.989 94.6602L93.0554 94.3945C93.1484 94.4367 93.2773 94.4789 93.4203 94.4789C93.5257 94.4789 93.6007 94.4523 93.6007 94.3898C93.6007 94.3305 93.5382 94.2938 93.3851 94.25C93.1593 94.1828 92.9992 94.0852 92.9992 93.8906C92.9992 93.7164 93.1296 93.5781 93.3664 93.5344V93.3562H93.6007V93.5195C93.7437 93.5234 93.8414 93.55 93.9156 93.5805L93.8492 93.8359C93.7929 93.8148 93.6914 93.7711 93.5367 93.7711C93.414 93.7711 93.3765 93.8109 93.3765 93.8539C93.3765 93.9016 93.4468 93.9383 93.621 93.9937C93.882 94.0742 93.9773 94.1836 93.9773 94.3586C93.9773 94.5375 93.8406 94.6828 93.5914 94.725Z" fill="#469FD1"/>
<path d="M80.5117 97.1555H80.2445C80.1016 96.2922 79.5523 95.5508 78.7797 95.0945C78.4891 95.4883 78.0234 95.7445 77.4977 95.7445C76.7953 95.7445 76.1984 95.2875 75.9867 94.6563L75.1852 94.0492C75.0859 93.9742 74.9953 94.0172 74.9813 94.1445L74.8578 95.3227C74.4383 95.6461 74.1109 96.0633 73.9109 96.5391H73.3812C73.1719 96.5375 73 96.7094 73 96.9195V98.0789C73 98.2891 73.1719 98.4609 73.3812 98.4609H73.832C74.0539 99.1344 74.5297 99.7086 75.1594 100.091V100.829C75.1594 100.923 75.2367 101 75.3305 101H76.1695C76.2633 101 76.3406 100.923 76.3406 100.829V100.535C76.55 100.573 76.7672 100.594 76.9891 100.594C77.2109 100.594 77.4281 100.573 77.6375 100.535V100.829C77.6375 100.923 77.7148 101 77.8086 101H78.6477C78.7414 101 78.8187 100.923 78.8187 100.829V100.091C79.6117 99.6094 80.1609 98.825 80.2664 97.9195H80.5117C80.7227 97.9195 80.893 97.7484 80.893 97.5375C80.893 97.3266 80.7227 97.1555 80.5117 97.1555ZM75.2211 96.8203C74.9883 96.8203 74.7945 96.6586 74.7414 96.443C74.8047 96.532 74.9078 96.5898 75.025 96.5898C75.218 96.5898 75.3742 96.4336 75.3742 96.2406C75.3742 96.0477 75.218 95.8914 75.025 95.8914C75.0086 95.8914 74.9922 95.8945 74.9758 95.8961C75.0484 95.8547 75.1312 95.8289 75.2211 95.8289C75.4945 95.8289 75.7164 96.0508 75.7164 96.325C75.7172 96.5977 75.4953 96.8203 75.2211 96.8203Z" fill="#469FD1"/>
<path d="M77.4984 93C76.864 93 76.3484 93.5156 76.3484 94.15C76.3484 94.7844 76.8648 95.3 77.4984 95.3C78.132 95.3 78.6476 94.7844 78.6476 94.15C78.6476 93.5156 78.132 93 77.4984 93ZM77.5914 94.725V94.9211H77.3554V94.7422C77.2101 94.7344 77.0671 94.6977 76.989 94.6602L77.0554 94.3945C77.1484 94.4367 77.2773 94.4789 77.4203 94.4789C77.5257 94.4789 77.6007 94.4523 77.6007 94.3898C77.6007 94.3305 77.5382 94.2938 77.3851 94.25C77.1593 94.1828 76.9992 94.0852 76.9992 93.8906C76.9992 93.7164 77.1296 93.5781 77.3664 93.5344V93.3562H77.6007V93.5195C77.7437 93.5234 77.8414 93.55 77.9156 93.5805L77.8492 93.8359C77.7929 93.8148 77.6914 93.7711 77.5367 93.7711C77.414 93.7711 77.3765 93.8109 77.3765 93.8539C77.3765 93.9016 77.4468 93.9383 77.621 93.9937C77.882 94.0742 77.9773 94.1836 77.9773 94.3586C77.9773 94.5375 77.8406 94.6828 77.5914 94.725Z" fill="#469FD1"/>
<path d="M64.5117 97.1555H64.2445C64.1016 96.2922 63.5523 95.5508 62.7797 95.0945C62.4891 95.4883 62.0234 95.7445 61.4977 95.7445C60.7953 95.7445 60.1984 95.2875 59.9867 94.6563L59.1852 94.0492C59.0859 93.9742 58.9953 94.0172 58.9813 94.1445L58.8578 95.3227C58.4383 95.6461 58.1109 96.0633 57.9109 96.5391H57.3812C57.1719 96.5375 57 96.7094 57 96.9195V98.0789C57 98.2891 57.1719 98.4609 57.3812 98.4609H57.832C58.0539 99.1344 58.5297 99.7086 59.1594 100.091V100.829C59.1594 100.923 59.2367 101 59.3305 101H60.1695C60.2633 101 60.3406 100.923 60.3406 100.829V100.535C60.55 100.573 60.7672 100.594 60.9891 100.594C61.2109 100.594 61.4281 100.573 61.6375 100.535V100.829C61.6375 100.923 61.7148 101 61.8086 101H62.6477C62.7414 101 62.8187 100.923 62.8187 100.829V100.091C63.6117 99.6094 64.1609 98.825 64.2664 97.9195H64.5117C64.7227 97.9195 64.893 97.7484 64.893 97.5375C64.893 97.3266 64.7227 97.1555 64.5117 97.1555ZM59.2211 96.8203C58.9883 96.8203 58.7945 96.6586 58.7414 96.443C58.8047 96.532 58.9078 96.5898 59.025 96.5898C59.218 96.5898 59.3742 96.4336 59.3742 96.2406C59.3742 96.0477 59.218 95.8914 59.025 95.8914C59.0086 95.8914 58.9922 95.8945 58.9758 95.8961C59.0484 95.8547 59.1312 95.8289 59.2211 95.8289C59.4945 95.8289 59.7164 96.0508 59.7164 96.325C59.7172 96.5977 59.4953 96.8203 59.2211 96.8203Z" fill="#469FD1"/>
<path d="M61.4984 93C60.864 93 60.3484 93.5156 60.3484 94.15C60.3484 94.7844 60.8648 95.3 61.4984 95.3C62.132 95.3 62.6476 94.7844 62.6476 94.15C62.6476 93.5156 62.132 93 61.4984 93ZM61.5914 94.725V94.9211H61.3554V94.7422C61.2101 94.7344 61.0671 94.6977 60.989 94.6602L61.0554 94.3945C61.1484 94.4367 61.2773 94.4789 61.4203 94.4789C61.5257 94.4789 61.6007 94.4523 61.6007 94.3898C61.6007 94.3305 61.5382 94.2938 61.3851 94.25C61.1593 94.1828 60.9992 94.0852 60.9992 93.8906C60.9992 93.7164 61.1296 93.5781 61.3664 93.5344V93.3562H61.6007V93.5195C61.7437 93.5234 61.8414 93.55 61.9156 93.5805L61.8492 93.8359C61.7929 93.8148 61.6914 93.7711 61.5367 93.7711C61.414 93.7711 61.3765 93.8109 61.3765 93.8539C61.3765 93.9016 61.4468 93.9383 61.621 93.9937C61.882 94.0742 61.9773 94.1836 61.9773 94.3586C61.9773 94.5375 61.8406 94.6828 61.5914 94.725Z" fill="#469FD1"/>
<path d="M309.149 152.085H306.571C306.038 152.085 305.54 151.644 305.54 151.054C305.54 150.463 306.064 150.023 306.829 150.023H310.439V148.992H308.118V147.188H307.087V148.992H306.571C305.466 148.992 304.509 149.68 304.509 151.054C304.509 152.428 305.642 153.116 306.312 153.116H308.633C309.271 153.116 309.663 153.685 309.663 154.147C309.663 154.608 309.139 155.178 308.633 155.178H304.764V156.209H307.085V158.012H308.116V156.209H308.888C309.574 156.209 310.692 155.299 310.692 154.147C310.692 152.994 309.938 152.085 309.149 152.085ZM307.602 143.579C302.618 143.579 298.579 147.618 298.579 152.602C298.579 157.585 302.618 161.624 307.602 161.624C312.585 161.624 316.624 157.585 316.624 152.602C316.624 147.618 312.585 143.579 307.602 143.579ZM307.602 160.593C303.188 160.593 299.61 157.015 299.61 152.602C299.61 148.188 303.188 144.61 307.602 144.61C312.015 144.61 315.593 148.188 315.593 152.602C315.593 157.015 312.015 160.593 307.602 160.593ZM307.602 141C301.194 141 296 146.194 296 152.602C296 159.009 301.194 164.203 307.602 164.203C314.009 164.203 319.203 159.009 319.203 152.602C319.203 146.194 314.009 141 307.602 141ZM307.602 163.172C301.764 163.172 297.031 158.439 297.031 152.602C297.031 146.764 301.764 142.031 307.602 142.031C313.439 142.031 318.172 146.764 318.172 152.602C318.172 158.439 313.439 163.172 307.602 163.172Z" fill="#609BBB"/>
<rect x="57.5" y="122.691" width="123" height="61" rx="5.5" fill="#E7F2FA" stroke="#195471"/>
<line x1="72" y1="173.041" x2="174" y2="173.041" stroke="#AECBD9" stroke-width="0.3" stroke-dasharray="3 3"/>
<line x1="72" y1="161.041" x2="174" y2="161.041" stroke="#AECBD9" stroke-width="0.3" stroke-dasharray="3 3"/>
<line x1="72" y1="149.041" x2="174" y2="149.041" stroke="#AECBD9" stroke-width="0.3" stroke-dasharray="3 3"/>
<line x1="72" y1="137.041" x2="174" y2="137.041" stroke="#AECBD9" stroke-width="0.3" stroke-dasharray="3 3"/>
<path d="M84 183.191V174.191C84 171.43 81.7614 169.191 79 169.191C76.2386 169.191 74 171.43 74 174.191V183.191H84Z" fill="#BBE1F7" stroke="#195471" stroke-width="0.5" stroke-miterlimit="10"/>
<path d="M119 183.191V154.691C119 152.206 116.985 150.191 114.5 150.191C112.015 150.191 110 152.206 110 154.691V183.191H119Z" fill="#BBE1F7" stroke="#195471" stroke-width="0.5" stroke-miterlimit="10"/>
<path d="M102 183.191V164.191C102 161.43 99.7614 159.191 97 159.191C94.2386 159.191 92 161.43 92 164.191V183.191H102Z" fill="#BBE1F7" stroke="#195471" stroke-width="0.5" stroke-miterlimit="10"/>
<path d="M137 183.191V148.191C137 145.43 134.761 143.191 132 143.191C129.239 143.191 127 145.43 127 148.191V183.191H137Z" fill="#BBE1F7" stroke="#195471" stroke-width="0.5" stroke-miterlimit="10"/>
<path d="M155 183.191V133.191C155 130.43 152.761 128.191 150 128.191C147.239 128.191 145 130.43 145 133.191V183.191H155Z" fill="#BBE1F7" stroke="#195471" stroke-width="0.5" stroke-miterlimit="10"/>
<path d="M173 183.191V158.191C173 155.43 170.761 153.191 168 153.191C165.239 153.191 163 155.43 163 158.191V183.191H173Z" fill="#BBE1F7" stroke="#195471" stroke-width="0.5" stroke-miterlimit="10"/>
<rect x="74.2449" y="177.191" width="9.47226" height="6" fill="#469FD1"/>
<rect x="92.2697" y="173.005" width="9.47226" height="10.1859" fill="#469FD1"/>
<rect x="110.276" y="177.191" width="8.42882" height="5.67515" fill="#469FD1"/>
<rect x="127.239" y="164.454" width="9.47762" height="18.4122" fill="#469FD1"/>
<rect x="145.25" y="180.419" width="9.47762" height="2.77219" fill="#469FD1"/>
<rect x="163.262" y="170.576" width="9.47762" height="12.2249" fill="#469FD1"/>
<path d="M64.5213 175.005V174.686L65.7216 173.372C65.8625 173.218 65.9785 173.084 66.0696 172.97C66.1608 172.855 66.2282 172.748 66.272 172.647C66.317 172.545 66.3395 172.439 66.3395 172.328C66.3395 172.2 66.3087 172.089 66.2472 171.996C66.1868 171.902 66.1039 171.83 65.9986 171.779C65.8932 171.728 65.7749 171.703 65.6435 171.703C65.5038 171.703 65.3819 171.732 65.2777 171.79C65.1747 171.846 65.0948 171.926 65.038 172.029C64.9824 172.132 64.9546 172.253 64.9546 172.391H64.5355C64.5355 172.178 64.5846 171.991 64.6829 171.83C64.7811 171.669 64.9149 171.544 65.0842 171.454C65.2546 171.364 65.4458 171.319 65.6577 171.319C65.8707 171.319 66.0596 171.364 66.2241 171.454C66.3886 171.544 66.5176 171.665 66.6112 171.818C66.7047 171.971 66.7514 172.141 66.7514 172.328C66.7514 172.461 66.7272 172.592 66.6786 172.72C66.6313 172.847 66.5484 172.988 66.4301 173.144C66.3129 173.299 66.1501 173.489 65.9418 173.712L65.125 174.586V174.614H66.8154V175.005H64.5213ZM68.7347 175.055C68.4672 175.055 68.2394 174.982 68.0511 174.836C67.8629 174.69 67.7191 174.477 67.6197 174.199C67.5203 173.92 67.4705 173.582 67.4705 173.187C67.4705 172.794 67.5203 172.458 67.6197 172.18C67.7203 171.901 67.8647 171.688 68.0529 171.541C68.2423 171.393 68.4696 171.319 68.7347 171.319C68.9999 171.319 69.2266 171.393 69.4148 171.541C69.6042 171.688 69.7486 171.901 69.848 172.18C69.9486 172.458 69.9989 172.794 69.9989 173.187C69.9989 173.582 69.9492 173.92 69.8498 174.199C69.7504 174.477 69.6065 174.69 69.4183 174.836C69.2301 174.982 69.0023 175.055 68.7347 175.055ZM68.7347 174.664C68.9999 174.664 69.2059 174.536 69.3526 174.281C69.4994 174.025 69.5728 173.66 69.5728 173.187C69.5728 172.872 69.5391 172.604 69.4716 172.383C69.4053 172.161 69.3094 171.993 69.184 171.877C69.0597 171.761 68.9099 171.703 68.7347 171.703C68.472 171.703 68.2666 171.832 68.1186 172.091C67.9707 172.349 67.8967 172.715 67.8967 173.187C67.8967 173.502 67.9298 173.769 67.9961 173.989C68.0624 174.21 68.1577 174.377 68.282 174.492C68.4074 174.607 68.5584 174.664 68.7347 174.664Z" fill="#AECBD9"/>
<path d="M65.5938 162.821C65.3594 162.821 65.1505 162.781 64.967 162.701C64.7847 162.62 64.6397 162.508 64.532 162.365C64.4254 162.221 64.3674 162.053 64.358 161.863H64.8054C64.8149 161.98 64.8551 162.081 64.9261 162.166C64.9972 162.25 65.0901 162.315 65.2049 162.361C65.3197 162.408 65.447 162.431 65.5867 162.431C65.7429 162.431 65.8814 162.404 66.0021 162.349C66.1229 162.295 66.2176 162.219 66.2862 162.122C66.3549 162.025 66.3892 161.912 66.3892 161.784C66.3892 161.651 66.3561 161.533 66.2898 161.431C66.2235 161.328 66.1264 161.248 65.9986 161.19C65.8707 161.132 65.7145 161.103 65.5298 161.103H65.2386V160.712H65.5298C65.6743 160.712 65.8009 160.686 65.9098 160.634C66.0199 160.582 66.1057 160.508 66.1673 160.414C66.23 160.319 66.2614 160.208 66.2614 160.08C66.2614 159.957 66.2341 159.85 66.1797 159.758C66.1252 159.667 66.0483 159.596 65.9489 159.545C65.8506 159.495 65.7346 159.469 65.6009 159.469C65.4754 159.469 65.357 159.492 65.2457 159.538C65.1357 159.583 65.0457 159.649 64.9759 159.735C64.906 159.821 64.8681 159.924 64.8622 160.044H64.4361C64.4432 159.854 64.5006 159.687 64.6083 159.544C64.716 159.399 64.8569 159.287 65.0309 159.206C65.2061 159.126 65.3984 159.086 65.608 159.086C65.8329 159.086 66.0258 159.131 66.1868 159.222C66.3478 159.312 66.4715 159.431 66.5579 159.579C66.6443 159.727 66.6875 159.887 66.6875 160.059C66.6875 160.263 66.6337 160.438 66.5259 160.582C66.4194 160.727 66.2744 160.827 66.0909 160.882V160.911C66.3206 160.949 66.4999 161.046 66.6289 161.204C66.7579 161.36 66.8225 161.554 66.8225 161.784C66.8225 161.982 66.7686 162.16 66.6609 162.317C66.5543 162.473 66.4087 162.596 66.2241 162.686C66.0394 162.776 65.8293 162.821 65.5938 162.821ZM68.7347 162.821C68.4672 162.821 68.2394 162.749 68.0511 162.603C67.8629 162.456 67.7191 162.244 67.6197 161.966C67.5203 161.686 67.4705 161.349 67.4705 160.953C67.4705 160.56 67.5203 160.225 67.6197 159.947C67.7203 159.667 67.8647 159.454 68.0529 159.308C68.2423 159.16 68.4696 159.086 68.7347 159.086C68.9999 159.086 69.2266 159.16 69.4148 159.308C69.6042 159.454 69.7486 159.667 69.848 159.947C69.9486 160.225 69.9989 160.56 69.9989 160.953C69.9989 161.349 69.9492 161.686 69.8498 161.966C69.7504 162.244 69.6065 162.456 69.4183 162.603C69.2301 162.749 69.0023 162.821 68.7347 162.821ZM68.7347 162.431C68.9999 162.431 69.2059 162.303 69.3526 162.047C69.4994 161.792 69.5728 161.427 69.5728 160.953C69.5728 160.639 69.5391 160.37 69.4716 160.149C69.4053 159.928 69.3094 159.759 69.184 159.643C69.0597 159.527 68.9099 159.469 68.7347 159.469C68.472 159.469 68.2666 159.599 68.1186 159.858C67.9707 160.116 67.8967 160.481 67.8967 160.953C67.8967 161.268 67.9298 161.536 67.9961 161.756C68.0624 161.976 68.1577 162.144 68.282 162.258C68.4074 162.373 68.5584 162.431 68.7347 162.431Z" fill="#AECBD9"/>
<path d="M64.2554 149.792V149.43L65.8534 146.902H66.1162V147.463H65.9387L64.7313 149.373V149.402H66.8833V149.792H64.2554ZM65.9671 150.538V149.682V149.514V146.902H66.3861V150.538H65.9671ZM68.7347 150.588C68.4672 150.588 68.2394 150.515 68.0511 150.369C67.8629 150.223 67.7191 150.01 67.6197 149.732C67.5203 149.453 67.4705 149.115 67.4705 148.72C67.4705 148.327 67.5203 147.991 67.6197 147.713C67.7203 147.434 67.8647 147.221 68.0529 147.074C68.2423 146.926 68.4696 146.852 68.7347 146.852C68.9999 146.852 69.2266 146.926 69.4148 147.074C69.6042 147.221 69.7486 147.434 69.848 147.713C69.9486 147.991 69.9989 148.327 69.9989 148.72C69.9989 149.115 69.9492 149.453 69.8498 149.732C69.7504 150.01 69.6065 150.223 69.4183 150.369C69.2301 150.515 69.0023 150.588 68.7347 150.588ZM68.7347 150.197C68.9999 150.197 69.2059 150.069 69.3526 149.814C69.4994 149.558 69.5728 149.193 69.5728 148.72C69.5728 148.405 69.5391 148.137 69.4716 147.916C69.4053 147.694 69.3094 147.526 69.184 147.41C69.0597 147.294 68.9099 147.236 68.7347 147.236C68.472 147.236 68.2666 147.365 68.1186 147.624C67.9707 147.883 67.8967 148.248 67.8967 148.72C67.8967 149.035 67.9298 149.302 67.9961 149.523C68.0624 149.743 68.1577 149.91 68.282 150.025C68.4074 150.14 68.5584 150.197 68.7347 150.197Z" fill="#AECBD9"/>
<path d="M65.643 139.588C65.4347 139.588 65.2471 139.546 65.0802 139.464C64.9133 139.381 64.7795 139.267 64.6789 139.123C64.5783 138.978 64.5232 138.814 64.5138 138.629H64.9399C64.9565 138.794 65.0311 138.93 65.1636 139.037C65.2974 139.144 65.4572 139.197 65.643 139.197C65.7922 139.197 65.9248 139.162 66.0408 139.092C66.1579 139.023 66.2497 138.927 66.316 138.805C66.3834 138.682 66.4172 138.543 66.4172 138.388C66.4172 138.229 66.3823 138.088 66.3124 137.963C66.2438 137.838 66.1491 137.739 66.0283 137.667C65.9076 137.595 65.7697 137.558 65.6146 137.557C65.5034 137.555 65.3891 137.573 65.2719 137.608C65.1548 137.642 65.0583 137.687 64.9825 137.741L64.5706 137.692L64.7908 135.902H66.68V136.292H65.1601L65.0322 137.365H65.0535C65.1281 137.306 65.2216 137.257 65.3341 137.217C65.4465 137.178 65.5637 137.159 65.6856 137.159C65.9082 137.159 66.1065 137.212 66.2805 137.319C66.4557 137.424 66.593 137.568 66.6924 137.752C66.793 137.935 66.8433 138.145 66.8433 138.38C66.8433 138.612 66.7912 138.82 66.6871 139.002C66.5841 139.183 66.442 139.326 66.2609 139.432C66.0798 139.536 65.8739 139.588 65.643 139.588ZM68.7347 139.588C68.4672 139.588 68.2394 139.515 68.0511 139.369C67.8629 139.223 67.7191 139.01 67.6197 138.732C67.5203 138.453 67.4705 138.115 67.4705 137.72C67.4705 137.327 67.5203 136.991 67.6197 136.713C67.7203 136.434 67.8647 136.221 68.0529 136.074C68.2423 135.926 68.4696 135.852 68.7347 135.852C68.9999 135.852 69.2266 135.926 69.4148 136.074C69.6042 136.221 69.7486 136.434 69.848 136.713C69.9486 136.991 69.9989 137.327 69.9989 137.72C69.9989 138.115 69.9492 138.453 69.8498 138.732C69.7504 139.01 69.6065 139.223 69.4183 139.369C69.2301 139.515 69.0023 139.588 68.7347 139.588ZM68.7347 139.197C68.9999 139.197 69.2059 139.069 69.3526 138.814C69.4994 138.558 69.5728 138.193 69.5728 137.72C69.5728 137.405 69.5391 137.137 69.4716 136.916C69.4053 136.694 69.3094 136.526 69.184 136.41C69.0597 136.294 68.9099 136.236 68.7347 136.236C68.472 136.236 68.2666 136.365 68.1186 136.624C67.9707 136.883 67.8967 137.248 67.8967 137.72C67.8967 138.035 67.9298 138.302 67.9961 138.523C68.0624 138.743 68.1577 138.91 68.282 139.025C68.4074 139.14 68.5584 139.197 68.7347 139.197Z" fill="#AECBD9"/>
<defs>
<linearGradient id="paint0_linear_56_3918" x1="136.835" y1="199.75" x2="136.835" y2="263" gradientUnits="userSpaceOnUse">
<stop stop-color="#A6DAF8"/>
<stop offset="1" stop-color="white" stop-opacity="0"/>
</linearGradient>
<clipPath id="clip0_56_3918">
<rect width="65.1901" height="65.1901" fill="white" transform="translate(344.38 68) rotate(26.7871)"/>
</clipPath>
<clipPath id="clip1_56_3918">
<rect width="27.0239" height="27.0239" fill="white" transform="translate(317 27.0754) rotate(-31.3892)"/>
</clipPath>
</defs>
</svg>
